<svg xmlns="http://www.w3.org/2000/svg" viewBox="0 0 743.87 388.71">
	<defs>
		<style>
			.cls-1{fill:#078adb;}.cls-2{fill:#026ebf;}
		</style>
	</defs>
	<title>
		LOGO_Mueen
	</title>
	<g id="Calque_1" data-name="Calque 1">
		<polygon class="cls-1" points="409.08 320.89 374.03 302.54 340.61 323.72 342.25 363.25 377.3 381.61 410.72 360.42 409.08 320.89" />
	</g>
	<g id="Calque_2" data-name="Calque 2">
		<path class="cls-2" d="M900.46,453.1,632.07,740.28a19.35,19.35,0,0,1-29.11-.94l-52.44-64c-6.89-8.41-6.34-21.79,1.24-29.9l249.15-266.6c11.38-12.18,29-11.82,39.37.82Z" transform="translate(-545.69 -358.22)" />
		<path class="cls-2" d="M936.76,624.24l169-180.85-57.51-70.14c-8.25-10.07-22.31-10.37-31.39-.65l-171.06,183,55.63,67.86C910.73,634.84,926.55,635.17,936.76,624.24Z" transform="translate(-545.69 -358.22)" />
	</g>
	<g id="Calque_7" data-name="Calque 7">
		<path class="cls-1" d="M904.4,631.75,744.3,436.48,813,362.93c6-6.45,15.36-6.25,20.84.44L995.79,560.84l-66.74,71.42C921.92,639.89,910.88,639.66,904.4,631.75Z" transform="translate(-545.69 -358.22)" />
	</g>
	<g id="Calque_6" data-name="Calque 6">
		<path class="cls-1" d="M954.6,437.7,1205.68,740a19.11,19.11,0,0,0,28.76.75L1283,688a24.63,24.63,0,0,0,.84-32.43L1044.13,366.93c-6.36-7.66-16.57-8.38-22.81-1.61Z" transform="translate(-545.69 -358.22)" />
	</g>
</svg>
