<svg xmlns="http://www.w3.org/2000/svg" width="744" height="402" viewBox="0 0 744 402"><defs><style>.cls-1{fill:#078adb;}.cls-2{fill:#026ebf;}</style></defs><title>LOGO_Mueenai</title><g id="Calque_1" data-name="Calque 1"><polygon class="cls-1" points="408.776 321.114 373.724 302.764 340.307 323.945 341.941 363.475 376.993 381.825 410.41 360.645 408.776 321.114"/></g><g id="Calque_2" data-name="Calque 2"><path class="cls-2" d="M354.46,95.0972,86.0733,382.2839A19.3583,19.3583,0,0,1,56.96,381.34L4.5214,317.3809c-6.8922-8.4065-6.338-21.793,1.2379-29.9l249.1473-266.6c11.3868-12.1844,29.0155-11.8191,39.3747.8161Z"/><path class="cls-2" d="M390.7632,266.2392,559.7721,85.3914,502.264,15.2487c-8.2584-10.0728-22.3119-10.364-31.3895-.6506L299.806,197.65,355.44,265.5071C364.7335,276.8421,380.5481,277.17,390.7632,266.2392Z"/></g><g id="Calque_7" data-name="Calque 7"><path class="cls-1" d="M358.3955,273.7477,198.3044,78.4842,267.04,4.9336c6.0272-6.4494,15.3584-6.256,20.8417.432L449.7876,202.8424l-66.7411,71.4162C375.9177,281.8868,364.8811,281.6581,358.3955,273.7477Z"/></g><g id="Calque_6" data-name="Calque 6"><path class="cls-1" d="M408.5988,79.6974,659.6769,382.024a19.1141,19.1141,0,0,0,28.7582.7435l48.6073-52.7294a24.628,24.628,0,0,0,.8383-32.4271L498.1319,8.9261C491.7729,1.2692,481.56.5493,475.32,7.3182Z"/></g></svg>